<svg 
 xmlns="http://www.w3.org/2000/svg"
 xmlns:xlink="http://www.w3.org/1999/xlink"
 width="72px" height="165px">
<path fill-rule="evenodd"  fill="rgb(33, 36, 61)"
 d="M67.586,133.751 C65.146,133.751 63.168,131.793 63.168,129.375 C63.168,126.965 65.146,125.11 67.586,125.11 C70.25,125.11 72.3,126.965 72.3,129.375 C72.3,131.793 70.25,133.751 67.586,133.751 ZM67.586,102.498 C65.146,102.498 63.168,100.544 63.168,98.130 C63.168,95.712 65.146,93.755 67.586,93.755 C70.25,93.755 72.3,95.712 72.3,98.130 C72.3,100.544 70.25,102.498 67.586,102.498 ZM67.586,71.245 C65.146,71.245 63.168,69.291 63.168,66.873 C63.168,64.463 65.146,62.506 67.586,62.506 C70.25,62.506 72.3,64.463 72.3,66.873 C72.3,69.291 70.25,71.245 67.586,71.245 ZM67.586,39.995 C65.146,39.995 63.168,38.38 63.168,35.620 C63.168,33.210 65.146,31.252 67.586,31.252 C70.25,31.252 72.3,33.210 72.3,35.620 C72.3,38.38 70.25,39.995 67.586,39.995 ZM67.586,8.742 C65.146,8.742 63.168,6.789 63.168,4.375 C63.168,1.957 65.146,0.0 67.586,0.0 C70.25,0.0 72.3,1.957 72.3,4.375 C72.3,6.789 70.25,8.742 67.586,8.742 ZM36.0,165.0 C33.564,165.0 31.582,163.46 31.582,160.636 C31.582,158.218 33.564,156.260 36.0,156.260 C38.440,156.260 40.418,158.218 40.418,160.636 C40.418,163.46 38.440,165.0 36.0,165.0 ZM36.0,133.751 C33.564,133.751 31.582,131.793 31.582,129.375 C31.582,126.965 33.564,125.11 36.0,125.11 C38.440,125.11 40.418,126.965 40.418,129.375 C40.418,131.793 38.440,133.751 36.0,133.751 ZM36.0,102.498 C33.564,102.498 31.582,100.544 31.582,98.130 C31.582,95.712 33.564,93.755 36.0,93.755 C38.440,93.755 40.418,95.712 40.418,98.130 C40.418,100.544 38.440,102.498 36.0,102.498 ZM36.0,71.245 C33.564,71.245 31.582,69.291 31.582,66.873 C31.582,64.463 33.564,62.506 36.0,62.506 C38.440,62.506 40.418,64.463 40.418,66.873 C40.418,69.291 38.440,71.245 36.0,71.245 ZM36.0,39.995 C33.564,39.995 31.582,38.38 31.582,35.620 C31.582,33.210 33.564,31.252 36.0,31.252 C38.440,31.252 40.418,33.210 40.418,35.620 C40.418,38.38 38.440,39.995 36.0,39.995 ZM36.0,8.742 C33.564,8.742 31.582,6.789 31.582,4.375 C31.582,1.957 33.564,0.0 36.0,0.0 C38.440,0.0 40.418,1.957 40.418,4.375 C40.418,6.789 38.440,8.742 36.0,8.742 ZM4.419,165.0 C1.979,165.0 0.2,163.46 0.2,160.636 C0.2,158.218 1.979,156.260 4.419,156.260 C6.854,156.260 8.829,158.218 8.829,160.636 C8.829,163.46 6.854,165.0 4.419,165.0 ZM4.419,133.751 C1.979,133.751 0.2,131.793 0.2,129.375 C0.2,126.965 1.979,125.11 4.419,125.11 C6.854,125.11 8.829,126.965 8.829,129.375 C8.829,131.793 6.854,133.751 4.419,133.751 ZM4.419,102.498 C1.979,102.498 0.2,100.544 0.2,98.130 C0.2,95.712 1.979,93.755 4.419,93.755 C6.854,93.755 8.829,95.712 8.829,98.130 C8.829,100.544 6.854,102.498 4.419,102.498 ZM4.419,71.245 C1.979,71.245 0.2,69.291 0.2,66.873 C0.2,64.463 1.979,62.506 4.419,62.506 C6.854,62.506 8.829,64.463 8.829,66.873 C8.829,69.291 6.854,71.245 4.419,71.245 ZM4.419,39.995 C1.979,39.995 0.2,38.38 0.2,35.620 C0.2,33.210 1.979,31.252 4.419,31.252 C6.854,31.252 8.829,33.210 8.829,35.620 C8.829,38.38 6.854,39.995 4.419,39.995 ZM4.419,8.742 C1.979,8.742 0.2,6.789 0.2,4.375 C0.2,1.957 1.979,0.0 4.419,0.0 C6.854,0.0 8.829,1.957 8.829,4.375 C8.829,6.789 6.854,8.742 4.419,8.742 ZM67.586,156.260 C70.25,156.260 72.3,158.218 72.3,160.636 C72.3,163.46 70.25,165.0 67.586,165.0 C65.146,165.0 63.168,163.46 63.168,160.636 C63.168,158.218 65.146,156.260 67.586,156.260 Z"/>
</svg>