<svg 
 xmlns="http://www.w3.org/2000/svg"
 xmlns:xlink="http://www.w3.org/1999/xlink"
 width="175px" height="175px">
<path fill-rule="evenodd"  fill="rgb(33, 36, 61)"
 d="M174.787,93.260 L91.465,174.898 C90.150,174.958 88.831,174.999 87.501,174.999 C84.657,174.999 81.848,174.852 79.73,174.587 L174.721,80.870 C174.886,83.61 174.997,85.265 174.997,87.497 C174.997,89.436 174.911,91.353 174.787,93.260 ZM54.930,168.709 L169.362,56.586 C170.532,59.683 171.536,62.860 172.354,66.113 L64.395,171.892 C61.160,171.9 58.3,169.943 54.930,168.709 ZM35.708,158.12 L159.49,37.161 C160.794,39.637 162.417,42.204 163.902,44.859 L43.314,163.12 C40.690,161.472 38.148,159.807 35.708,158.12 ZM20.324,143.549 L144.900,21.488 C147.140,23.438 149.281,25.496 151.312,27.661 L26.373,150.77 C24.250,148.3 22.228,145.828 20.324,143.549 ZM9.40,126.227 L127.819,9.846 C130.554,11.269 133.208,12.825 135.764,14.519 L13.560,134.255 C11.919,131.666 10.406,128.990 9.40,126.227 ZM1.581,104.3 L105.766,1.920 C109.150,2.638 112.455,3.564 115.681,4.661 L4.99,113.991 C3.67,110.741 2.230,107.406 1.581,104.3 ZM0.5,87.497 C0.5,83.303 0.319,79.184 0.889,75.147 L76.916,0.656 C80.388,0.237 83.916,0.3 87.501,0.3 C88.415,0.3 89.320,0.37 90.229,0.65 L0.29,88.444 C0.25,88.127 0.5,87.815 0.5,87.497 ZM52.877,7.128 L7.888,51.209 C16.883,31.506 32.958,15.722 52.877,7.128 ZM158.154,139.92 C152.472,146.860 145.539,153.649 137.653,159.178 C130.69,164.496 121.608,168.640 112.522,171.348 L170.824,114.223 C167.935,123.239 163.624,131.613 158.154,139.92 Z"/>
</svg>