<svg 
 xmlns="http://www.w3.org/2000/svg"
 xmlns:xlink="http://www.w3.org/1999/xlink"
 width="191px" height="191px">
<path fill-rule="evenodd"  fill="rgb(255, 209, 126)"
 d="M190.767,101.786 L99.828,190.889 C98.392,190.953 96.952,190.999 95.501,190.999 C92.397,190.999 89.331,190.838 86.303,190.549 L190.696,88.264 C190.875,90.655 190.996,93.61 190.996,95.497 C190.996,97.613 190.903,99.705 190.767,101.786 ZM59.952,184.133 L184.847,61.760 C186.124,65.140 187.220,68.608 188.112,72.158 L70.283,187.608 C66.752,186.644 63.306,185.480 59.952,184.133 ZM38.973,172.459 L173.591,40.559 C175.495,43.261 177.266,46.62 178.887,48.961 L47.274,177.916 C44.410,176.235 41.636,174.418 38.973,172.459 ZM22.183,156.673 L158.149,23.453 C160.593,25.581 162.929,27.827 165.146,30.190 L28.784,163.798 C26.467,161.535 24.260,159.161 22.183,156.673 ZM9.866,137.768 L139.506,10.747 C142.491,12.300 145.387,13.997 148.176,15.846 L14.800,146.530 C13.9,143.704 11.357,140.784 9.866,137.768 ZM1.725,113.512 L115.436,2.95 C119.129,2.880 122.737,3.890 126.258,5.87 L4.474,124.413 C3.348,120.865 2.434,117.226 1.725,113.512 ZM0.5,95.497 C0.5,90.920 0.348,86.423 0.970,82.18 L83.948,0.716 C87.738,0.258 91.588,0.3 95.501,0.3 C96.499,0.3 97.487,0.40 98.478,0.71 L0.32,96.530 C0.28,96.184 0.5,95.843 0.5,95.497 ZM57.712,7.779 L8.610,55.891 C18.427,34.386 35.971,17.159 57.712,7.779 ZM172.614,151.809 C166.412,160.288 158.846,167.697 150.239,173.732 C141.961,179.535 132.727,184.59 122.810,187.14 L186.442,124.667 C183.289,134.506 178.584,143.647 172.614,151.809 Z"/>
</svg>