<svg 
 xmlns="http://www.w3.org/2000/svg"
 xmlns:xlink="http://www.w3.org/1999/xlink"
 width="165px" height="72px">
<path fill-rule="evenodd"  fill="rgb(255, 209, 126)"
 d="M160.636,40.417 C158.218,40.417 156.260,38.435 156.260,35.999 C156.260,33.559 158.218,31.581 160.636,31.581 C163.46,31.581 165.0,33.559 165.0,35.999 C165.0,38.435 163.46,40.417 160.636,40.417 ZM160.636,8.831 C158.218,8.831 156.260,6.853 156.260,4.414 C156.260,1.974 158.218,0.3 160.636,0.3 C163.46,0.3 165.0,1.974 165.0,4.414 C165.0,6.853 163.46,8.831 160.636,8.831 ZM129.375,72.2 C126.965,72.2 125.11,70.20 125.11,67.580 C125.11,65.145 126.965,63.170 129.375,63.170 C131.793,63.170 133.750,65.145 133.750,67.580 C133.750,70.20 131.793,72.2 129.375,72.2 ZM129.375,40.417 C126.965,40.417 125.11,38.435 125.11,35.999 C125.11,33.559 126.965,31.581 129.375,31.581 C131.793,31.581 133.750,33.559 133.750,35.999 C133.750,38.435 131.793,40.417 129.375,40.417 ZM129.375,8.831 C126.965,8.831 125.11,6.853 125.11,4.414 C125.11,1.974 126.965,0.3 129.375,0.3 C131.793,0.3 133.750,1.974 133.750,4.414 C133.750,6.853 131.793,8.831 129.375,8.831 ZM98.130,72.2 C95.712,72.2 93.754,70.20 93.754,67.580 C93.754,65.145 95.712,63.170 98.130,63.170 C100.544,63.170 102.498,65.145 102.498,67.580 C102.498,70.20 100.544,72.2 98.130,72.2 ZM98.130,40.417 C95.712,40.417 93.754,38.435 93.754,35.999 C93.754,33.559 95.712,31.581 98.130,31.581 C100.544,31.581 102.498,33.559 102.498,35.999 C102.498,38.435 100.544,40.417 98.130,40.417 ZM98.130,8.831 C95.712,8.831 93.754,6.853 93.754,4.414 C93.754,1.974 95.712,0.3 98.130,0.3 C100.544,0.3 102.498,1.974 102.498,4.414 C102.498,6.853 100.544,8.831 98.130,8.831 ZM66.873,72.2 C64.463,72.2 62.505,70.20 62.505,67.580 C62.505,65.145 64.463,63.170 66.873,63.170 C69.291,63.170 71.245,65.145 71.245,67.580 C71.245,70.20 69.291,72.2 66.873,72.2 ZM66.873,40.417 C64.463,40.417 62.505,38.435 62.505,35.999 C62.505,33.559 64.463,31.581 66.873,31.581 C69.291,31.581 71.245,33.559 71.245,35.999 C71.245,38.435 69.291,40.417 66.873,40.417 ZM66.873,8.831 C64.463,8.831 62.505,6.853 62.505,4.414 C62.505,1.974 64.463,0.3 66.873,0.3 C69.291,0.3 71.245,1.974 71.245,4.414 C71.245,6.853 69.291,8.831 66.873,8.831 ZM35.620,72.2 C33.210,72.2 31.252,70.20 31.252,67.580 C31.252,65.145 33.210,63.170 35.620,63.170 C38.38,63.170 39.995,65.145 39.995,67.580 C39.995,70.20 38.38,72.2 35.620,72.2 ZM35.620,40.417 C33.210,40.417 31.252,38.435 31.252,35.999 C31.252,33.559 33.210,31.581 35.620,31.581 C38.38,31.581 39.995,33.559 39.995,35.999 C39.995,38.435 38.38,40.417 35.620,40.417 ZM35.620,8.831 C33.210,8.831 31.252,6.853 31.252,4.414 C31.252,1.974 33.210,0.3 35.620,0.3 C38.38,0.3 39.995,1.974 39.995,4.414 C39.995,6.853 38.38,8.831 35.620,8.831 ZM4.375,72.2 C1.957,72.2 0.0,70.20 0.0,67.580 C0.0,65.145 1.957,63.170 4.375,63.170 C6.789,63.170 8.743,65.145 8.743,67.580 C8.743,70.20 6.789,72.2 4.375,72.2 ZM4.375,40.417 C1.957,40.417 0.0,38.435 0.0,35.999 C0.0,33.559 1.957,31.581 4.375,31.581 C6.789,31.581 8.743,33.559 8.743,35.999 C8.743,38.435 6.789,40.417 4.375,40.417 ZM4.375,8.831 C1.957,8.831 0.0,6.853 0.0,4.414 C0.0,1.974 1.957,0.3 4.375,0.3 C6.789,0.3 8.743,1.974 8.743,4.414 C8.743,6.853 6.789,8.831 4.375,8.831 ZM160.636,63.170 C163.46,63.170 165.0,65.145 165.0,67.580 C165.0,70.20 163.46,72.2 160.636,72.2 C158.218,72.2 156.260,70.20 156.260,67.580 C156.260,65.145 158.218,63.170 160.636,63.170 Z"/>
</svg>