<svg 
 xmlns="http://www.w3.org/2000/svg"
 xmlns:xlink="http://www.w3.org/1999/xlink"
 width="30px" height="30px">
<path fill-rule="evenodd"  fill="rgb(255, 255, 255)"
 d="M20.899,17.801 C24.573,12.716 23.344,5.674 18.157,2.74 C12.970,-1.525 5.788,0.321 2.116,4.763 C-1.555,9.848 0.328,16.889 4.859,20.489 C8.561,23.59 13.456,23.257 17.361,20.996 L25.845,29.265 C26.761,30.210 28.285,30.248 29.250,29.350 C30.214,28.452 30.253,26.958 29.337,26.12 C29.308,25.982 29.280,25.955 29.250,25.927 L20.899,17.801 ZM11.501,18.572 C7.402,18.573 4.79,15.317 4.76,11.299 C4.75,7.281 7.396,4.22 11.495,4.21 C15.589,4.19 18.910,7.269 18.918,11.282 C18.925,15.302 15.606,18.565 11.506,18.572 C11.504,18.572 11.503,18.572 11.501,18.572 Z"/>
</svg>